<svg xmlns="http://www.w3.org/2000/svg" viewBox="0 0 22.95 79.33"><defs><style>.cls-1{fill:#e22622;}</style></defs><g id="Calque_2" data-name="Calque 2"><g id="Calque_1-2" data-name="Calque 1"><path class="cls-1" d="M8,76.91v-20c0-3.21-5-3.22-5,0v20c0,3.22,5,3.23,5,0Z"/><path class="cls-1" d="M7.5,22.41v-20c0-3.21-5-3.22-5,0v20c0,3.22,5,3.23,5,0Z"/><path class="cls-1" d="M7.1,55.65,20.67,32.14,22.6,28.8c1.61-2.79-2.71-5.31-4.32-2.52L4.71,49.79,2.78,53.12c-1.61,2.8,2.71,5.32,4.32,2.53Z"/><circle class="cls-1" cx="5" cy="25.91" r="5"/><circle class="cls-1" cx="5" cy="53.91" r="5"/></g></g></svg>