<svg xmlns="http://www.w3.org/2000/svg" viewBox="0 0 63.04 80.69"><defs><style>.cls-1{fill:#e22622;}</style></defs><g id="Calque_2" data-name="Calque 2"><g id="Calque_1-2" data-name="Calque 1"><path class="cls-1" d="M2.82,45.51,8.74,50c.38-4.2.75-8.23,1.11-12.27l.88,1,.3-.1.89-16.82c1.82,1.18,4.68,5.65,7.42,11.56l.21,0,2.52-16.52a10.54,10.54,0,0,1,3.16,4.06c2-7,4.42-13.69,4.24-20.92a30.33,30.33,0,0,1,7.82,20.51,34.84,34.84,0,0,0,2.29-6.39c.56-2.2,1.08-4.4,1.64-6.69A43,43,0,0,1,49.4,21.65c.43-1.12.81-2.13,1.24-3.29a19.11,19.11,0,0,1,3.59,7c.65,2.49,1.05,5.05,1.53,7.43L57,29.88A18.38,18.38,0,0,1,59.08,35,34.2,34.2,0,0,1,60,45.17c0,1.17-.11,2.33-.14,3.5a.62.62,0,0,0,.2.46,6,6,0,0,1,2.5,4.35c1.27,6.91.06,13.35-4.19,19-2.92,3.89-6.66,6.82-11.56,7.83a27.26,27.26,0,0,1-5.5.37c-5,0-10-.19-15-.25-5.94-.07-11.87-.09-17.81-.17a1.63,1.63,0,0,1-1-.62,35.41,35.41,0,0,1-6.35-13A37,37,0,0,1,0,55.74a23.26,23.26,0,0,1,2.58-9.89C2.66,45.77,2.71,45.69,2.82,45.51Zm10,12.23a5.18,5.18,0,0,0,0,.7,41.66,41.66,0,0,0,9,19.19,1.42,1.42,0,0,0,1.19.54c2,0,4,.07,6.05,0a28.64,28.64,0,0,0,4.64-.29,19.12,19.12,0,0,0,9-4.57,26.87,26.87,0,0,0,8.15-11.59c.52-1.49.81-3.06,1.21-4.59l-.23-.07c-.09.16-.17.32-.25.49-.61,1.29-1.15,2.61-1.84,3.86a6.08,6.08,0,0,1-2.74,2.73,2,2,0,0,1-3-1.86c0-1,.08-2,.09-3.06,0-1.53,0-3.07,0-4.61H44c-.11.26-.2.53-.32.78-.78,1.64-1.52,3.3-2.36,4.9a3.28,3.28,0,0,1-2,1.79A1.41,1.41,0,0,1,37.4,60.7c0-1.67.17-3.35.19-5,0-2.54,0-5.08,0-7.62l-.2,0a2.53,2.53,0,0,0-.12.23c-.62,1.62-1.22,3.26-1.87,4.87-.54,1.35-1.07,2.7-1.71,4a.86.86,0,0,1-1.58.12,4.44,4.44,0,0,1-.83-1.52c-.36-1.5-.64-3-.91-4.54-.12-.71-.15-1.44-.22-2.16-.67,1.21-1.15,2.45-1.74,3.63-.92,1.84-1.84,3.68-2.9,5.43a1.57,1.57,0,0,1-2.57.23,13.35,13.35,0,0,1-1.37-1.78c-.21-.29-.37-.63-.62-1.06-.12.44-.18.73-.28,1-.64,1.82-1.2,3.67-2,5.44a1.51,1.51,0,0,1-2.57.6,9.43,9.43,0,0,1-1.84-2A28.18,28.18,0,0,1,12.83,57.74ZM41.91,45.36c1.74-3.5,2.12-14.13.6-17.18A53.52,53.52,0,0,0,41.91,45.36Zm-9.2-6a30,30,0,0,0-.39-14.1A44.18,44.18,0,0,0,32.71,39.39ZM49.39,51.32c1.31-4.53,1.85-9.1.59-13.74A88.8,88.8,0,0,0,49.39,51.32Zm-26-3.81h.28V37A26.76,26.76,0,0,0,23.43,47.51Zm-7.65,5.63.23,0-.52-6.48-.25,0A14.1,14.1,0,0,0,15.78,53.14Z"/></g></g></svg>