<svg xmlns="http://www.w3.org/2000/svg" viewBox="0 0 76.84 86.83"><defs><style>.cls-1{fill:#e22622;}</style></defs><g id="Calque_2" data-name="Calque 2"><g id="Calque_1-2" data-name="Calque 1"><path class="cls-1" d="M41.24,48.63A3.05,3.05,0,0,1,39.75,43c2.65-1.49,6.56.77,8.22,2.85a8.64,8.64,0,0,1,.8,9.41,8.76,8.76,0,0,1-8.24,4.47,14.11,14.11,0,0,1-1.73-28c6.8-1.27,14.28,2.3,18.26,7.78A19.65,19.65,0,0,1,42.29,70.74,25.18,25.18,0,0,1,26.15,25.42c12.18-9,29.45-5,38.78,6.16A30.71,30.71,0,0,1,46.26,81.43,34.91,34.91,0,0,1,25,78,36.25,36.25,0,0,1,30.58,11,37,37,0,0,1,41.24,9.36c3.21,0,3.22-5,0-5A41.24,41.24,0,0,0,2.13,58.7,41.86,41.86,0,0,0,17,79a41.14,41.14,0,0,0,24.2,7.85,36,36,0,0,0,23.82-9.11C78.37,65.89,80.78,45,70.37,30.49a36,36,0,0,0-21-14.12c-8.63-2-17.91-.77-25.26,4.35a30.2,30.2,0,0,0-4.72,45.74A30,30,0,0,0,43,75.69,24.61,24.61,0,0,0,60.59,35.92c-5.4-6.92-14.75-10.81-23.45-9a19.09,19.09,0,0,0,1.35,37.54c4.72.65,9.54-.58,12.79-4.23A13.56,13.56,0,0,0,45,38.08a10.26,10.26,0,0,0-7.28.32,8,8,0,0,0,3.57,15.23c3.21.1,3.21-4.9,0-5Z"/><path class="cls-1" d="M50.17,6.17,39.67.11a.8.8,0,0,0-1.2.69V12.92a.8.8,0,0,0,1.2.69l10.5-6A.81.81,0,0,0,50.17,6.17Z"/></g></g></svg>