<svg xmlns="http://www.w3.org/2000/svg" viewBox="0 0 106.04 81.69"><defs><style>.cls-1{fill:#fdc609;}.cls-2{fill:#fdc40b;}.cls-3{fill:#fbbb14;}</style></defs><g id="Calque_2" data-name="Calque 2"><g id="Calque_1-2" data-name="Calque 1"><path class="cls-1" d="M106,52.29c.43,16-12.91,29.25-28.71,29.4C60.15,81.86,47,68.32,47.16,52.31a29.58,29.58,0,0,1,28.47-29C92,22.8,106.6,36,106,52.29Z"/><path class="cls-2" d="M48.25.05h6.81c-2,1.94-3.8,3.75-5.62,5.58q-7.95,8.06-15.89,16.11A1.8,1.8,0,0,0,33,23.05c-.19,5.73-.38,11.45-.63,17.18C32.24,43.81,32.1,47.4,32,51c-.09,3.85-.31,7.7-.52,11.54,0,.6.3.73.68.91l18.56,8.8c1.75.83,3.47,1.71,5.23,2.51.55.25.54.54.36,1-.44,1.12-.94,2.24-1.27,3.4-.22.81-.55.83-1.25.6q-15.63-5.22-31.27-10.4c-1.05-.35-2.51-.33-3-1.2S19.37,66,19.4,65q.34-10.43.71-20.83c.1-2.74.1-5.47.22-8.2.21-4.54.28-9.09.45-13.63a2.63,2.63,0,0,0-.93-2.13Q10.13,10.38.45.56C.32.43.2.28,0,.05H1.39a2.17,2.17,0,0,0,1.38,0H3A7.38,7.38,0,0,0,5.22.14H42.34A2.4,2.4,0,0,0,43.5.05h.2A20.36,20.36,0,0,0,48.25.05Z"/><path class="cls-3" d="M43.5.05c-.33.33-.75.18-1.12.19Q23.81.24,5.26.23C4.5.23,3.7.52,3,.05L21.22,0h21Z"/><path class="cls-3" d="M48.25.05c0,.06-.07.16-.11.16-1.48,0-3,.29-4.44-.16Z"/><path class="cls-3" d="M2.77.05a1.17,1.17,0,0,1-1.38,0Z"/></g></g></svg>